:version 1.10
:name ASF
:units
  mass 1
  length 1
  angle deg
:documentation
  ASF file generated by Kaydara
:root
  axis xyz
  order  tx ty tz rx ry rz
  position 0 0 0
  orientation 0 0 0
:bonedata
  begin
    id 1
    name SpineDummy
    direction 0.999998 -0.00179978 1.38929e-006
    length 3.60008
    axis 0 0 0 xyz
  end
  begin
    id 2
    name Spine
    direction 0.964365 0.262802 0.0305839
    length 8.13928
    axis 1.33928 -1.75354 15.2838 xyz
    dof rx ry rz
  end
  begin
    id 3
    name Spine1
    direction 0.811168 0.572065 0.12144
    length 7.14954
    axis 2.2224 -6.9761 35.2157 xyz
    dof rx ry rz
  end
  begin
    id 4
    name Neck
    direction 0 0 0
    length 0
    axis 2.2224 -6.9761 35.2157 xyz
    dof rx ry rz
  end
  begin
    id 5
    name HeadDummy
    direction 0.810939 0.572387 0.121455
    length 3.55534
    axis 2.2224 -6.9761 35.2157 xyz
  end
  begin
    id 6
    name Head
    direction 0.998226 -0.000232542 0.0595419
    length 7.35666
    axis -3.03688 -3.41352 -0.0133467 xyz
    dof rx ry rz
  end
  begin
    id 7
    name R_ClavicleDummy
    direction 0.531669 -0.194489 -0.824319
    length 2.49392
    axis 2.2224 -6.9761 35.2157 xyz
  end
  begin
    id 8
    name R_Clavicle
    direction -0.155119 0.0480802 -0.986725
    length 4.485
    axis -54.2764 80.6538 162.779 xyz
    dof rx ry rz
  end
  begin
    id 9
    name R_UpperArm
    direction -0.955567 0.200068 -0.216484
    length 10.1122
    axis -72.9943 12.5026 168.175 xyz
    dof rx ry rz
  end
  begin
    id 10
    name R_Forearm
    direction -0.61433 0.385743 0.688332
    length 9.39148
    axis -117.015 -43.4982 147.875 xyz
    dof rx ry rz
  end
  begin
    id 11
    name R_Hand
    direction -0.699429 0.0170333 0.714499
    length 3.66324
    axis -45.0303 -36.7097 175.478 xyz
    dof rx ry rz
  end
  begin
    id 12
    name L_ClavicleDummy
    direction 0.40287 -0.36502 0.839319
    length 2.49392
    axis 2.2224 -6.9761 35.2157 xyz
  end
  begin
    id 13
    name L_Clavicle
    direction -0.231271 -0.0726419 0.970174
    length 4.485
    axis 18.4357 -75.9711 -162.563 xyz
    dof rx ry rz
  end
  begin
    id 14
    name L_UpperArm
    direction -0.917494 0.144359 0.370629
    length 10.1122
    axis 56.0417 -21.7544 171.058 xyz
    dof rx ry rz
  end
  begin
    id 15
    name L_Forearm
    direction -0.496786 0.615074 -0.612281
    length 9.39148
    axis 89.8094 37.7546 128.927 xyz
    dof rx ry rz
  end
  begin
    id 16
    name L_Hand
    direction -0.409932 0.64962 -0.640274
    length 3.66324
    axis -0.424369 32.133 128.52 xyz
    dof rx ry rz
  end
  begin
    id 17
    name L_ThighDummy
    direction -1.84081e-006 1.87549e-006 1
    length 3.13049
    axis 0 0 0 xyz
  end
  begin
    id 18
    name L_Thigh
    direction -0.947739 0.307978 0.083308
    length 17.9961
    axis 173.219 -4.77873 161.998 xyz
    dof rx ry rz
  end
  begin
    id 19
    name L_Calf
    direction -0.728814 -0.684427 0.0197583
    length 13.3367
    axis 167.331 -1.13214 -136.799 xyz
    dof rx ry rz
  end
  begin
    id 20
    name L_Foot
    direction -0.9028 0.418719 0.0981191
    length 5.8674
    axis 163.436 11.5135 -155.37 xyz
    dof rx ry rz
  end
  begin
    id 21
    name L_Toe0
    direction -0.35341 0.886259 0.299411
    length 4.75286
    axis 169.316 -17.4222 111.74 xyz
    dof rx ry rz
  end
  begin
    id 22
    name R_ThighDummy
    direction 9.32778e-007 -8.82053e-007 -1
    length 3.13049
    axis 0 0 0 xyz
  end
  begin
    id 23
    name R_Thigh
    direction -0.925064 0.37528 -0.0585023
    length 17.9961
    axis -178.698 3.35385 157.919 xyz
    dof rx ry rz
  end
  begin
    id 24
    name R_Calf
    direction -0.68969 -0.718776 -0.0876886
    length 13.3367
    axis -160.504 5.03065 -133.817 xyz
    dof rx ry rz
  end
  begin
    id 25
    name R_Foot
    direction -0.857405 0.418858 -0.299022
    length 5.8674
    axis -161.328 4.38911 -154.413 xyz
    dof rx ry rz
  end
  begin
    id 26
    name R_Toe0
    direction -0.100745 0.952789 -0.286433
    length 4.75286
    axis 171.683 16.6445 96.0359 xyz
    dof rx ry rz
  end
:hierarchy
  begin
    root SpineDummy L_ThighDummy R_ThighDummy
    SpineDummy Spine
    Spine Spine1
    Spine1 Neck
    Neck HeadDummy R_ClavicleDummy L_ClavicleDummy
    HeadDummy Head
    R_ClavicleDummy R_Clavicle
    R_Clavicle R_UpperArm
    R_UpperArm R_Forearm
    R_Forearm R_Hand
    L_ClavicleDummy L_Clavicle
    L_Clavicle L_UpperArm
    L_UpperArm L_Forearm
    L_Forearm L_Hand
    L_ThighDummy L_Thigh
    L_Thigh L_Calf
    L_Calf L_Foot
    L_Foot L_Toe0
    R_ThighDummy R_Thigh
    R_Thigh R_Calf
    R_Calf R_Foot
    R_Foot R_Toe0
  end

:SAMPLES-PER-SECOND 30
:FULLY-SPECIFIED
:DEGREES
571
root  9.37542 16.0898 -4.13285 73.3983 27.821 100.799
Spine  -4.16054 -2.51093 34.5636
Spine1  -4.90941 1.41234 -15.3566
Neck  3.97569e-016 0 -2.38542e-015
Head  41.2829 -3.192 -7.93729
R_Clavicle  0.656872 -2.46603 3.48275
R_UpperArm  69.9505 15.6183 49.9811
R_Forearm  44.7909 31.5551 -30.7131
R_Hand  -0.316454 -0.815312 -2.97812
L_Clavicle  -0.481634 3.54674 3.48596
L_UpperArm  -63.6727 -25.9322 49.5785
L_Forearm  -9.92898 6.31271 7.36073
L_Hand  0.168516 6.39738 1.80042
L_Thigh  4.11588 -7.96592 40.6141
L_Calf  8.11581 1.77328 -13.1806
L_Foot  -4.78849 -10.9162 -20.4321
L_Toe0  0.505156 0.034446 -6.1361
R_Thigh  10.2655 -1.38274 2.46134
R_Calf  46.0883 -17.2702 -74.052
R_Foot  36.9632 47.1991 48.9162
R_Toe0  0.87165 -0.107704 6.99253
572
root  8.71818 17.6964 -4.39514 76.0062 26.4926 100.705
Spine  -1.51214 -0.00139041 31.548
Spine1  -1.92763 -6.49135 -15.6163
Neck  3.97569e-016 0 -2.38542e-015
Head  31.3371 -4.12518 -3.53631
R_Clavicle  0.718575 0.432775 3.63528
R_UpperArm  62.1627 21.8618 43.7975
R_Forearm  41.6901 33.9857 -34.0936
R_Hand  -0.414863 -2.08808 -0.649875
L_Clavicle  -0.547593 4.52147 4.14809
L_UpperArm  -55.7955 -21.0719 48.0014
L_Forearm  -7.04441 2.83132 3.29344
L_Hand  0.376575 6.79444 3.6821
L_Thigh  6.59752 -9.0949 36.1955
L_Calf  9.01902 0.776234 -5.80134
L_Foot  -4.86499 -10.9547 -21.2394
L_Toe0  0.505156 0.034446 -6.1361
R_Thigh  10.5431 -0.306512 2.74506
R_Calf  40.5095 -16.5916 -67.2
R_Foot  27.6285 43.0708 37.9345
R_Toe0  0.270921 0.293901 9.7623
573
root  8.03608 19.5448 -4.91259 78.0203 24.1463 100.673
Spine  1.04239 2.74105 28.3579
Spine1  1.31226 -15.3557 -15.3614
Neck  3.97569e-016 0 -2.38542e-015
Head  21.9301 -3.45555 0.294784
R_Clavicle  0.829685 2.07591 4.05714
R_UpperArm  50.8944 27.8643 32.9502
R_Forearm  39.2726 33.0183 -32.7083
R_Hand  -0.483564 -2.82731 1.13172
L_Clavicle  -0.562042 6.62748 4.55303
L_UpperArm  -50.1034 -17.4946 46.5316
L_Forearm  -7.68839 -0.547785 -0.614182
L_Hand  0.531795 7.27693 4.9359
L_Thigh  8.16217 -8.79737 31.9908
L_Calf  4.47073 -0.522742 3.77798
L_Foot  -4.44368 -7.92219 -19.3721
L_Toe0  0.505156 0.034446 -6.1361
R_Thigh  11.1491 0.0398379 3.43034
R_Calf  33.1825 -15.5362 -59.3654
R_Foot  20.127 37.062 30.2926
R_Toe0  -1.93511 1.47906 10.2858
574
root  7.36076 21.3698 -5.44271 79.6621 21.418 100.312
Spine  3.72187 4.87596 25.4193
Spine1  4.60604 -23.2793 -14.7055
Neck  3.97569e-016 0 -2.38542e-015
Head  12.6594 -1.71664 2.52711
R_Clavicle  0.961395 3.769 4.49973
R_UpperArm  40.4348 32.4135 21.2133
R_Forearm  37.8441 29.1679 -27.6579
R_Hand  -0.439527 -2.69431 1.55286
L_Clavicle  -0.482291 9.50065 3.75404
L_UpperArm  -46.4526 -14.6024 46.231
L_Forearm  -8.24078 -3.4896 -4.01977
L_Hand  0.598849 7.79666 5.33325
L_Thigh  9.10663 -7.20464 28.3116
L_Calf  -4.41531 -1.79218 13.1878
L_Foot  -3.42619 -4.56401 -14.9333
L_Toe0  0.505156 0.034446 -6.1361
R_Thigh  12.1934 -0.43081 3.85804
R_Calf  24.817 -14.2312 -51.7216
R_Foot  13.6549 29.7516 23.8678
R_Toe0  -3.88571 2.63798 10.8714
575
root  6.64975 23.1289 -5.92568 81.4941 18.3631 99.3411
Spine  6.42493 6.4332 22.5634
Spine1  7.53062 -29.4279 -13.6463
Neck  3.97569e-016 0 -2.38542e-015
Head  4.09225 0.204169 3.03976
R_Clavicle  1.29272 6.9249 5.72471
R_UpperArm  33.4977 34.9269 10.5392
R_Forearm  35.6251 23.957 -21.6943
R_Hand  -0.320511 -1.83204 0.384276
L_Clavicle  -0.426245 11.7106 2.53589
L_UpperArm  -43.8713 -11.2505 45.7679
L_Forearm  -7.74134 -5.53086 -6.40125
L_Hand  0.63973 8.31098 5.48861
L_Thigh  10.2256 -5.94162 25.9803
L_Calf  -10.2454 -2.39869 17.7646
L_Foot  -1.14561 1.45922 -7.04221
L_Toe0  0.505156 0.034446 -6.1361
R_Thigh  12.8947 -0.781224 3.41505
R_Calf  10.6927 -12.7828 -44.5776
R_Foot  8.94357 22.3525 21.1179
R_Toe0  -10.836 4.83574 7.18937
576
root  5.88862 24.7815 -6.37294 84.2029 14.959 98.3005
Spine  8.39974 6.93975 19.6827
Spine1  9.70635 -33.5616 -12.5655
Neck  3.97569e-016 0 -2.38542e-015
Head  -3.08656 1.47726 2.46934
R_Clavicle  1.52333 11.3708 5.65618
R_UpperArm  29.3637 36.3995 0.304583
R_Forearm  32.3394 18.2824 -15.9614
R_Hand  -0.246477 -1.07785 -0.888045
L_Clavicle  -0.410191 12.8966 1.71197
L_UpperArm  -41.578 -7.50539 44.6968
L_Forearm  -7.90722 -6.83581 -7.93693
L_Hand  0.68418 8.67257 5.71492
L_Thigh  11.6603 -5.62898 24.7762
L_Calf  -6.68748 -2.23684 16.4905
L_Foot  0.0512314 1.91773 -1.83812
L_Toe0  0.505156 0.034446 -6.1361
R_Thigh  11.9947 -1.42453 1.97731
R_Calf  -11.8731 -11.0895 -37.2749
R_Foot  7.29101 18.9594 22.691
R_Toe0  -21.2831 5.98889 -1.66078
